<?xml version="1.0" encoding="UTF-8"?>
<svg version="1.1" xmlns="http://www.w3.org/2000/svg" width="200" height="200">
<path d="M0 0 C66 0 132 0 200 0 C200 66 200 132 200 200 C134 200 68 200 0 200 C0 134 0 68 0 0 Z " fill="#FAFAFA" transform="translate(0,0)"/>
<path d="M0 0 C66 0 132 0 200 0 C200 66 200 132 200 200 C134 200 68 200 0 200 C0 134 0 68 0 0 Z M26.5625 36.5 C16.41606504 48.20742495 9.18084662 62.1057339 5 77 C4.773125 77.80050781 4.54625 78.60101563 4.3125 79.42578125 C-1.04954046 102.7729991 4.03222657 128.08040318 15.984375 148.51953125 C30.40320209 170.98406385 52.65148607 187.19408786 78.625 193.4375 C103.14957787 198.72454022 129.50472366 193.91494471 151 181.125 C173.7228958 166.13019567 187.83392363 146.15452757 195 120 C195.22816406 119.2265625 195.45632812 118.453125 195.69140625 117.65625 C201.19719041 95.7871213 195.30160096 71.0023496 184.14697266 51.97509766 C180.862199 46.58270845 177.20786145 41.6997877 173 37 C171.80117188 35.66001953 171.80117188 35.66001953 170.578125 34.29296875 C153.99936627 16.75774318 130.5250023 5.47728304 106.23828125 4.69921875 C104.26311105 4.67993996 102.28773312 4.67640589 100.3125 4.6875 C98.74375122 4.69487183 98.74375122 4.69487183 97.14331055 4.70239258 C69.86584444 5.11146017 45.22875939 16.70245216 26.5625 36.5 Z " fill="#FDFDFD" transform="translate(0,0)"/>
<path d="M0 0 C2.48671534 2.19635038 4.90149658 4.44696428 7.296875 6.7421875 C7.93367187 7.32742187 8.57046875 7.91265625 9.2265625 8.515625 C20.10419631 18.81311834 28.67715434 34.16677898 32.296875 48.7421875 C32.57273438 49.78890625 32.84859375 50.835625 33.1328125 51.9140625 C38.78875058 76.09449503 34.41115013 100.33789021 22.14453125 121.859375 C6.84498795 145.73054404 -15.31823898 160.28638091 -42.55078125 167.49609375 C-68.66083355 172.86837789 -94.82871316 166.6838841 -116.82592773 152.21777344 C-122.23933013 148.5125933 -127.06661363 144.37081365 -131.703125 139.7421875 C-132.46109375 138.99582031 -133.2190625 138.24945313 -134 137.48046875 C-151.60429443 119.11736853 -159.26336212 95.11520738 -159.125 70.03491211 C-158.46697411 45.06672596 -147.70241153 23.19907938 -130.3984375 5.3671875 C-95.01625198 -28.04287621 -37.68334399 -31.47539425 0 0 Z M-126.703125 16.7421875 C-144.12295379 37.55067599 -149.30903973 60.5222401 -147.46484375 87.1875 C-144.63849329 108.14246201 -131.78460917 126.41356337 -116.078125 139.9296875 C-95.84441579 155.33818784 -72.31973328 160.34405862 -47.23291016 157.45800781 C-32.44943791 154.97243867 -18.19468383 148.24997801 -6.703125 138.7421875 C-5.44435547 137.74445313 -5.44435547 137.74445313 -4.16015625 136.7265625 C12.18037582 123.04611704 22.45486522 102.12956756 24.57177734 80.99804688 C26.12660812 55.99880689 18.34073211 34.75084497 1.83984375 15.94140625 C-7.96015405 5.56747008 -19.27459729 -1.39045217 -32.703125 -6.2578125 C-33.45851563 -6.55300781 -34.21390625 -6.84820313 -34.9921875 -7.15234375 C-67.0646526 -18.98999905 -103.79516537 -7.65330197 -126.703125 16.7421875 Z " fill="#080808" transform="translate(161.703125,26.2578125)"/>
<path d="M0 0 C3.10039543 1.75494081 5.48825667 3.48825667 8 6 C7.90613916 9.56671177 7.19802025 10.79662785 4.6875 13.375 C2 15 2 15 -0.1875 14.75 C-0.785625 14.5025 -1.38375 14.255 -2 14 C-2.66 14 -3.32 14 -4 14 C-3.01 15.98 -3.01 15.98 -2 18 C-3.98 20.97 -5.96 23.94 -8 27 C-6.35 26.67 -4.7 26.34 -3 26 C4.72686391 25.47614482 12.36491668 26.613001 18.625 31.5 C21 34 21 34 21 37 C18.91781638 37.10832169 16.83400871 37.18573541 14.75 37.25 C13.58984375 37.29640625 12.4296875 37.3428125 11.234375 37.390625 C7.42333987 36.93035506 6.34488245 35.94851556 4 33 C3.67 34.32 3.34 35.64 3 37 C2.21496094 37.09796875 1.42992187 37.1959375 0.62109375 37.296875 C-5.83098609 38.21520784 -10.59997334 39.31816364 -16 43 C-15.05640625 42.94779297 -15.05640625 42.94779297 -14.09375 42.89453125 C-7.38498425 42.68235643 -1.4313715 42.91176565 3.7578125 47.58203125 C8.87012827 53.25003352 10.39447979 57.95163811 10.26953125 65.55078125 C9.90993603 68.81840738 8.74340952 71.2396016 7 74 C5.25 73.9375 5.25 73.9375 3 73 C-0.58032595 67.98754367 -1.57204005 64.0984293 -2 58 C-2.99 59.32 -3.98 60.64 -5 62 C-8 61 -8 61 -10.1875 58.5 C-13.91554694 55.1861805 -16.10561284 55.24886714 -21 55 C-20.45730469 55.37511719 -19.91460937 55.75023437 -19.35546875 56.13671875 C-18.64003906 56.64847656 -17.92460937 57.16023438 -17.1875 57.6875 C-16.47980469 58.18636719 -15.77210938 58.68523437 -15.04296875 59.19921875 C-11.73647828 62.1137352 -10.18947701 64.6668329 -9.56640625 69.05078125 C-9.55783896 76.20446474 -10.17710946 80.9072682 -14 87 C-15.32 87 -16.64 87 -18 87 C-19.17664871 83.47005387 -19.19850603 80.70544587 -19 77 C-18.01 75.515 -18.01 75.515 -17 74 C-18.485 73.505 -18.485 73.505 -20 73 C-20.04898438 72.41992188 -20.09796875 71.83984375 -20.1484375 71.2421875 C-20.59649405 66.56076908 -21.298021 62.42514541 -23 58 C-25.44647724 58.92928357 -25.44647724 58.92928357 -26.20703125 62.59375 C-26.46307129 63.4084375 -26.71911133 64.223125 -26.98291016 65.0625 C-28.1966959 68.5680857 -29.64807258 71.94894353 -31.13671875 75.34375 C-31.42257843 76.00238037 -31.70843811 76.66101074 -32.00296021 77.33959961 C-33.19582951 80.08771949 -34.39083715 82.83448973 -35.6105957 85.57080078 C-40.44808902 96.33928997 -40.44808902 96.33928997 -41 108 C-40.91621094 109.06089844 -40.83242187 110.12179688 -40.74609375 111.21484375 C-40.5382916 113.04823737 -40.32994776 114.88156966 -40.12109375 116.71484375 C-40 119 -40 119 -41 121 C-45.29 121 -49.58 121 -54 121 C-55.21957546 117.34127362 -55.16928052 114.01785829 -55.23046875 110.1796875 C-56.39029227 105.38732028 -59.17472813 101.98569841 -62 98 C-63.36773783 95.9608821 -64.72940142 93.91768077 -66.0859375 91.87109375 C-66.78847656 90.81728516 -67.49101563 89.76347656 -68.21484375 88.67773438 C-71.4765625 83.78515625 -74.73828125 78.89257812 -78 74 C-78.33 76.64 -78.66 79.28 -79 82 C-79.99 82 -80.98 82 -82 82 C-81.87625 82.825 -81.7525 83.65 -81.625 84.5 C-82.09454796 88.8824476 -83.74594686 90.74884944 -86.46484375 94.09765625 C-88.22024141 96.27292002 -89.63092637 98.56609132 -91 101 C-92.32 100.67 -93.64 100.34 -95 100 C-95.60157069 90.2746071 -94.51701667 82.88474538 -88.75 74.875 C-88.1725 74.25625 -87.595 73.6375 -87 73 C-93.65872115 76.19618615 -97.72723723 80.43732154 -101.03515625 87.078125 C-102.342686 89.68259721 -104.14051197 91.76861436 -106 94 C-107.485 93.505 -107.485 93.505 -109 93 C-109.52412914 86.01161147 -109.74913139 80.50722474 -105.51171875 74.69140625 C-103.21027608 72.11640708 -100.7709019 70.06206653 -98 68 C-103.03478441 68.23413974 -103.03478441 68.23413974 -106.9375 71.0625 C-107.288125 71.701875 -107.63875 72.34125 -108 73 C-109.65 72.67 -111.3 72.34 -113 72 C-112.67 73.65 -112.34 75.3 -112 77 C-113.65 77 -115.3 77 -117 77 C-116.67 78.32 -116.34 79.64 -116 81 C-117.6875 82.5625 -117.6875 82.5625 -120 84 C-122.75 83.6875 -122.75 83.6875 -125 83 C-125.87432216 77.46262635 -123.72850352 73.99885555 -120.859375 69.4765625 C-117.68146187 65.24379586 -113.77118597 61.38559298 -109 59 C-106.95944995 58.92934383 -104.91665743 58.91578024 -102.875 58.9375 C-101.77929688 58.94652344 -100.68359375 58.95554688 -99.5546875 58.96484375 C-98.29011719 58.98224609 -98.29011719 58.98224609 -97 59 C-99.97 58.01 -102.94 57.02 -106 56 C-105.34 54.68 -104.68 53.36 -104 52 C-106.9254644 51.7763932 -106.9254644 51.7763932 -109 53 C-111.8125 53.5 -111.8125 53.5 -115 53 C-116.49629326 51.35847828 -117.59647092 49.63268328 -118.765625 47.74609375 C-120.41826053 45.40834666 -122.54691704 44.40176169 -125 43 C-125 42.01 -125 41.02 -125 40 C-112.55762557 39.30704598 -98.02109475 39.39246018 -88 48 C-88.02320313 47.39671875 -88.04640625 46.7934375 -88.0703125 46.171875 C-88.08835938 45.37265625 -88.10640625 44.5734375 -88.125 43.75 C-88.14820313 42.96109375 -88.17140625 42.1721875 -88.1953125 41.359375 C-87.9828378 38.79268059 -87.28654105 37.2083933 -86 35 C-86.721875 35 -87.44375 35 -88.1875 35 C-92.03793768 33.63095549 -93.03628744 31.41948371 -95.08203125 28.0078125 C-96 26 -96 26 -96 23 C-90.5873135 23.22092598 -87.51272827 24.39371406 -83.57421875 28.1640625 C-76.93806698 35.90349508 -77.23774877 45.31173781 -77 55 C-76.52820313 54.27683594 -76.52820313 54.27683594 -76.046875 53.5390625 C-75.61890625 52.90742187 -75.1909375 52.27578125 -74.75 51.625 C-74.33234375 50.99851563 -73.9146875 50.37203125 -73.484375 49.7265625 C-70.83151907 46.64087218 -68.73299791 46.05877813 -64.6875 45.734375 C-62.8621875 45.74210937 -62.8621875 45.74210937 -61 45.75 C-59.783125 45.74484375 -58.56625 45.7396875 -57.3125 45.734375 C-54.24711209 45.98018441 -52.56337048 46.3850766 -50 48 C-50.33 48.99 -50.66 49.98 -51 51 C-53.64 51.33 -56.28 51.66 -59 52 C-59 52.66 -59 53.32 -59 54 C-59.62648438 54.19335938 -60.25296875 54.38671875 -60.8984375 54.5859375 C-61.71570313 54.84632812 -62.53296875 55.10671875 -63.375 55.375 C-64.18710938 55.63023438 -64.99921875 55.88546875 -65.8359375 56.1484375 C-68.16459185 56.89854283 -68.16459185 56.89854283 -70 59 C-69.12988281 58.94779297 -69.12988281 58.94779297 -68.2421875 58.89453125 C-63.03872313 58.71421318 -59.39865443 58.90094801 -55 62 C-50.54195811 67.01529713 -47.60855682 72.14974431 -48 79 C-53.46834406 78.36414604 -57.23568225 77.129349 -60.8125 72.8125 C-61.204375 72.214375 -61.59625 71.61625 -62 71 C-62.556875 71.185625 -63.11375 71.37125 -63.6875 71.5625 C-66.40162004 72.07598217 -68.32685483 71.59846534 -71 71 C-68.79719955 74.50351028 -66.58675359 78.00213617 -64.375 81.5 C-63.75753906 82.48226562 -63.14007813 83.46453125 -62.50390625 84.4765625 C-57.32820513 93.17679301 -57.32820513 93.17679301 -51 101 C-50.01 101 -49.02 101 -48 101 C-47.52691406 99.81148438 -47.05382812 98.62296875 -46.56640625 97.3984375 C-45.89866177 95.72386889 -45.230673 94.04939768 -44.5625 92.375 C-44.20921631 91.48941406 -43.85593262 90.60382813 -43.49194336 89.69140625 C-41.51811739 84.75576274 -39.52466815 79.82908635 -37.5 74.9140625 C-37.09322021 73.92615723 -36.68644043 72.93825195 -36.26733398 71.92041016 C-35.47498178 69.99981905 -34.68028832 68.08019188 -33.88305664 66.16162109 C-33.52074951 65.28328613 -33.15844238 64.40495117 -32.78515625 63.5 C-32.30381226 62.33984375 -32.30381226 62.33984375 -31.81274414 61.15625 C-31.04481791 59.1189041 -30.47949995 57.12173454 -30 55 C-30.721875 55.309375 -31.44375 55.61875 -32.1875 55.9375 C-34.80307309 56.92560539 -37.25118982 57.5287754 -40 58 C-40 58.66 -40 59.32 -40 60 C-42.97 60.99 -45.94 61.98 -49 63 C-49.375 60.8125 -49.375 60.8125 -49 58 C-44.67165989 53.33871065 -40.05373725 51.65468818 -34 50 C-39.03933027 46.02158136 -43.70214541 44.94592282 -50 44 C-51.125 40.25 -51.125 40.25 -50 38 C-50.515625 38.515625 -51.03125 39.03125 -51.5625 39.5625 C-55.06909684 41.63049301 -57.10613792 40.93989774 -61 40 C-64.4375 38.4375 -64.4375 38.4375 -67 37 C-66.625 35.0625 -66.625 35.0625 -66 33 C-60.76902421 30.3845121 -51.78443231 31.2804276 -46.21875 32.71875 C-41.48331945 34.72968626 -37.7650793 37.52454218 -34 41 C-34.73839246 39.55650326 -35.49126643 38.12040949 -36.25 36.6875 C-36.66765625 35.88699219 -37.0853125 35.08648437 -37.515625 34.26171875 C-40.43155349 29.81876455 -44.01727396 28.47216906 -49 27 C-49 26.01 -49 25.02 -49 24 C-50.32 24.33 -51.64 24.66 -53 25 C-53.495 23.515 -53.495 23.515 -54 22 C-53.01 21.505 -53.01 21.505 -52 21 C-52.6290625 20.89042969 -53.258125 20.78085938 -53.90625 20.66796875 C-59.56623682 19.61950734 -64.6694886 18.17168983 -70 16 C-69.67 14.68 -69.34 13.36 -69 12 C-60.05169551 9.15489806 -47.42706941 9.99553381 -39 14 C-33.61549842 17.19558463 -30.04378571 22.18176452 -28.39453125 28.21484375 C-28.26433594 28.80394531 -28.13414063 29.39304687 -28 30 C-27.72905518 29.19163696 -27.72905518 29.19163696 -27.45263672 28.36694336 C-26.60998136 25.88449025 -25.74274086 23.41129064 -24.875 20.9375 C-24.59140625 20.08994141 -24.3078125 19.24238281 -24.015625 18.36914062 C-21.65934138 11.73569001 -18.609294 6.69179123 -12.91015625 2.44140625 C-8.46352215 0.32619975 -5.01621215 -0.74314254 0 0 Z " fill="#090909" transform="translate(153,44)"/>
<path d="M0 0 C-2.3125 2.5 -2.3125 2.5 -5 5 C-5.99 5 -6.98 5 -8 5 C-8.66 4.34 -9.32 3.68 -10 3 C-6.68152292 -0.06320961 -4.44849969 -0.3033068 0 0 Z " fill="#E7E7E7" transform="translate(56,111)"/>
</svg>
